<svg xmlns="http://www.w3.org/2000/svg" xmlns:xlink="http://www.w3.org/1999/xlink" width="109" zoomAndPan="magnify" viewBox="0 0 81.75 59.249999" height="79" preserveAspectRatio="xMidYMid meet" version="1.0"><defs><clipPath id="id1"><path d="M 11.828125 0.59375 L 69.773438 0.59375 L 69.773438 58.507812 L 11.828125 58.507812 Z M 11.828125 0.59375 " clip-rule="nonzero"/></clipPath></defs><g clip-path="url(#id1)"><path fill="#00749a" d="M 15.921875 29.566406 C 15.921875 39.4375 21.589844 47.9375 29.863281 51.925781 L 18.125 19.488281 C 16.761719 22.640625 15.921875 26 15.921875 29.566406 Z M 57.597656 28.308594 C 57.597656 25.265625 56.441406 23.054688 55.496094 21.484375 C 54.234375 19.382812 53.082031 17.703125 53.082031 15.605469 C 53.082031 13.296875 54.867188 11.195312 57.28125 11.195312 L 57.597656 11.195312 C 53.1875 7.101562 47.308594 4.6875 40.800781 4.6875 C 38.742188 4.703125 36.714844 4.972656 34.722656 5.484375 C 32.726562 6 30.824219 6.746094 29.015625 7.722656 C 27.203125 8.703125 25.535156 9.886719 24.015625 11.269531 C 22.492188 12.65625 21.160156 14.207031 20.015625 15.917969 L 21.59375 15.917969 C 24.21875 15.917969 28.203125 15.605469 28.203125 15.605469 C 29.570312 15.5 29.675781 17.492188 28.414062 17.703125 C 28.414062 17.703125 27.050781 17.914062 25.582031 17.914062 L 34.609375 44.785156 L 40.066406 28.515625 L 36.183594 17.914062 L 33.558594 17.707031 C 32.191406 17.601562 32.402344 15.605469 33.664062 15.605469 C 33.664062 15.605469 37.753906 15.921875 40.171875 15.921875 C 42.796875 15.921875 46.785156 15.605469 46.785156 15.605469 C 48.148438 15.5 48.253906 17.496094 46.992188 17.707031 C 46.992188 17.707031 45.628906 17.917969 44.160156 17.917969 L 53.1875 44.6875 L 55.722656 36.394531 C 56.773438 32.929688 57.609375 30.515625 57.609375 28.308594 Z M 41.222656 31.769531 L 33.769531 53.398438 C 35.972656 54.027344 38.386719 54.449219 40.800781 54.449219 C 43.738281 54.449219 46.46875 53.902344 49.09375 53.082031 C 48.988281 52.976562 48.988281 52.871094 48.882812 52.765625 Z M 62.636719 17.707031 L 62.84375 20.242188 C 62.84375 22.777344 62.425781 25.597656 60.957031 29.164062 L 53.398438 51.105469 C 60.746094 46.800781 65.785156 38.820312 65.785156 29.585938 C 65.679688 25.28125 64.523438 21.292969 62.632812 17.722656 Z M 40.800781 0.59375 C 24.84375 0.59375 11.828125 13.609375 11.828125 29.566406 C 11.828125 45.523438 24.84375 58.539062 40.800781 58.539062 C 56.757812 58.539062 69.773438 45.523438 69.773438 29.566406 C 69.773438 13.609375 56.757812 0.59375 40.800781 0.59375 Z M 40.800781 57.28125 C 25.578125 57.28125 13.191406 44.894531 13.191406 29.566406 C 13.195312 28.664062 13.242188 27.761719 13.332031 26.863281 C 13.421875 25.964844 13.554688 25.070312 13.730469 24.183594 C 13.910156 23.296875 14.128906 22.421875 14.390625 21.558594 C 14.65625 20.691406 14.960938 19.84375 15.304688 19.007812 C 15.652344 18.175781 16.039062 17.359375 16.464844 16.5625 C 16.890625 15.765625 17.355469 14.992188 17.859375 14.238281 C 18.363281 13.488281 18.898438 12.761719 19.472656 12.066406 C 20.046875 11.367188 20.652344 10.699219 21.292969 10.058594 C 21.929688 9.417969 22.601562 8.8125 23.296875 8.238281 C 23.996094 7.664062 24.722656 7.128906 25.472656 6.625 C 26.222656 6.125 27 5.660156 27.796875 5.230469 C 28.59375 4.804688 29.40625 4.417969 30.242188 4.074219 C 31.078125 3.726562 31.925781 3.421875 32.792969 3.15625 C 33.65625 2.894531 34.53125 2.675781 35.417969 2.496094 C 36.304688 2.320312 37.195312 2.1875 38.097656 2.097656 C 38.996094 2.007812 39.898438 1.960938 40.800781 1.960938 C 41.703125 1.960938 42.605469 2.007812 43.503906 2.097656 C 44.40625 2.1875 45.296875 2.320312 46.183594 2.496094 C 47.070312 2.675781 47.945312 2.894531 48.808594 3.15625 C 49.675781 3.421875 50.523438 3.726562 51.359375 4.074219 C 52.195312 4.417969 53.007812 4.804688 53.804688 5.230469 C 54.601562 5.660156 55.378906 6.125 56.128906 6.625 C 56.878906 7.128906 57.605469 7.667969 58.304688 8.238281 C 59 8.8125 59.671875 9.417969 60.308594 10.058594 C 60.949219 10.699219 61.554688 11.367188 62.128906 12.066406 C 62.703125 12.761719 63.238281 13.488281 63.742188 14.238281 C 64.246094 14.992188 64.707031 15.765625 65.136719 16.5625 C 65.5625 17.359375 65.949219 18.175781 66.296875 19.007812 C 66.640625 19.84375 66.945312 20.691406 67.210938 21.558594 C 67.472656 22.421875 67.691406 23.296875 67.871094 24.183594 C 68.046875 25.070312 68.179688 25.964844 68.269531 26.863281 C 68.359375 27.761719 68.40625 28.664062 68.40625 29.566406 C 68.40625 44.894531 56.023438 57.28125 40.800781 57.28125 Z M 40.800781 57.28125 " fill-opacity="1" fill-rule="nonzero"/></g></svg>